<svg id="visual" viewBox="0 0 900 600" width="900" height="600" xmlns="http://www.w3.org/2000/svg" xmlns:xlink="http://www.w3.org/1999/xlink" version="1.1"><g stroke-width="1" stroke-linejoin="bevel"><path d="M422 331L395 365L532 378Z" fill="#297ea6" stroke="#297ea6"></path><path d="M395 365L489 507L532 378Z" fill="#205a7a" stroke="#205a7a"></path><path d="M379 467L489 507L395 365Z" fill="#0c2435" stroke="#0c2435"></path><path d="M532 378L526 267L422 331Z" fill="#246688" stroke="#246688"></path><path d="M287 269L318 374L395 365Z" fill="#15384f" stroke="#15384f"></path><path d="M395 365L318 374L379 467Z" fill="#15384f" stroke="#15384f"></path><path d="M287 269L395 365L422 331Z" fill="#205a7a" stroke="#205a7a"></path><path d="M318 374L331 488L379 467Z" fill="#081a28" stroke="#081a28"></path><path d="M408 600L470 600L489 507Z" fill="#205a7a" stroke="#205a7a"></path><path d="M588 512L629 363L532 378Z" fill="#246688" stroke="#246688"></path><path d="M532 378L598 270L526 267Z" fill="#297ea6" stroke="#297ea6"></path><path d="M489 507L588 512L532 378Z" fill="#19435d" stroke="#19435d"></path><path d="M629 363L598 270L532 378Z" fill="#246688" stroke="#246688"></path><path d="M408 600L489 507L379 467Z" fill="#1d4e6b" stroke="#1d4e6b"></path><path d="M489 507L470 600L588 512Z" fill="#297ea6" stroke="#297ea6"></path><path d="M381 183L287 269L422 331Z" fill="#246688" stroke="#246688"></path><path d="M318 374L221 481L331 488Z" fill="#00101c" stroke="#00101c"></path><path d="M591 174L494 177L526 267Z" fill="#246688" stroke="#246688"></path><path d="M526 267L494 177L422 331Z" fill="#246688" stroke="#246688"></path><path d="M331 488L408 600L379 467Z" fill="#00101c" stroke="#00101c"></path><path d="M688 479L680 389L629 363Z" fill="#246688" stroke="#246688"></path><path d="M629 363L694 262L598 270Z" fill="#112e42" stroke="#112e42"></path><path d="M494 177L381 183L422 331Z" fill="#246688" stroke="#246688"></path><path d="M618 600L688 479L588 512Z" fill="#1d4e6b" stroke="#1d4e6b"></path><path d="M588 512L688 479L629 363Z" fill="#277297" stroke="#277297"></path><path d="M694 226L591 174L598 270Z" fill="#15384f" stroke="#15384f"></path><path d="M598 270L591 174L526 267Z" fill="#15384f" stroke="#15384f"></path><path d="M178 380L221 481L318 374Z" fill="#246688" stroke="#246688"></path><path d="M331 488L293 600L408 600Z" fill="#1d4e6b" stroke="#1d4e6b"></path><path d="M470 600L618 600L588 512Z" fill="#0c2435" stroke="#0c2435"></path><path d="M680 389L694 262L629 363Z" fill="#15384f" stroke="#15384f"></path><path d="M804 321L694 262L680 389Z" fill="#112e42" stroke="#112e42"></path><path d="M221 481L293 600L331 488Z" fill="#0c2435" stroke="#0c2435"></path><path d="M381 183L267 191L287 269Z" fill="#081a28" stroke="#081a28"></path><path d="M287 269L178 380L318 374Z" fill="#1d4e6b" stroke="#1d4e6b"></path><path d="M177 273L178 380L287 269Z" fill="#205a7a" stroke="#205a7a"></path><path d="M694 262L694 226L598 270Z" fill="#19435d" stroke="#19435d"></path><path d="M381 183L306 96L267 191Z" fill="#15384f" stroke="#15384f"></path><path d="M494 177L425 102L381 183Z" fill="#15384f" stroke="#15384f"></path><path d="M514 80L425 102L494 177Z" fill="#15384f" stroke="#15384f"></path><path d="M694 226L607 122L591 174Z" fill="#112e42" stroke="#112e42"></path><path d="M591 174L514 80L494 177Z" fill="#277297" stroke="#277297"></path><path d="M195 201L177 273L287 269Z" fill="#246688" stroke="#246688"></path><path d="M607 122L514 80L591 174Z" fill="#246688" stroke="#246688"></path><path d="M267 191L195 201L287 269Z" fill="#246688" stroke="#246688"></path><path d="M181 94L195 201L267 191Z" fill="#0c2435" stroke="#0c2435"></path><path d="M618 600L714 600L688 479Z" fill="#0c2435" stroke="#0c2435"></path><path d="M835 369L804 321L680 389Z" fill="#246688" stroke="#246688"></path><path d="M694 262L805 239L694 226Z" fill="#277297" stroke="#277297"></path><path d="M392 0L306 96L425 102Z" fill="#00101c" stroke="#00101c"></path><path d="M425 102L306 96L381 183Z" fill="#0c2435" stroke="#0c2435"></path><path d="M178 380L118 432L221 481Z" fill="#246688" stroke="#246688"></path><path d="M221 481L184 600L293 600Z" fill="#205a7a" stroke="#205a7a"></path><path d="M76 335L118 432L178 380Z" fill="#297ea6" stroke="#297ea6"></path><path d="M76 335L178 380L177 273Z" fill="#081a28" stroke="#081a28"></path><path d="M120 531L184 600L221 481Z" fill="#15384f" stroke="#15384f"></path><path d="M835 369L680 389L688 479Z" fill="#112e42" stroke="#112e42"></path><path d="M694 226L696 105L607 122Z" fill="#112e42" stroke="#112e42"></path><path d="M808 118L696 105L694 226Z" fill="#19435d" stroke="#19435d"></path><path d="M579 0L532 0L514 80Z" fill="#081a28" stroke="#081a28"></path><path d="M118 432L120 531L221 481Z" fill="#081a28" stroke="#081a28"></path><path d="M830 528L835 369L688 479Z" fill="#0c2435" stroke="#0c2435"></path><path d="M804 321L805 239L694 262Z" fill="#081a28" stroke="#081a28"></path><path d="M900 309L805 239L804 321Z" fill="#277297" stroke="#277297"></path><path d="M76 225L76 335L177 273Z" fill="#297ea6" stroke="#297ea6"></path><path d="M118 432L0 489L120 531Z" fill="#246688" stroke="#246688"></path><path d="M714 600L830 528L688 479Z" fill="#19435d" stroke="#19435d"></path><path d="M514 80L392 0L425 102Z" fill="#19435d" stroke="#19435d"></path><path d="M306 96L181 94L267 191Z" fill="#1d4e6b" stroke="#1d4e6b"></path><path d="M532 0L392 0L514 80Z" fill="#1d4e6b" stroke="#1d4e6b"></path><path d="M579 0L514 80L607 122Z" fill="#112e42" stroke="#112e42"></path><path d="M690 0L579 0L607 122Z" fill="#081a28" stroke="#081a28"></path><path d="M213 0L181 94L306 96Z" fill="#0c2435" stroke="#0c2435"></path><path d="M195 201L76 225L177 273Z" fill="#205a7a" stroke="#205a7a"></path><path d="M714 600L812 600L830 528Z" fill="#1d4e6b" stroke="#1d4e6b"></path><path d="M0 600L108 600L120 531Z" fill="#297ea6" stroke="#297ea6"></path><path d="M120 531L108 600L184 600Z" fill="#112e42" stroke="#112e42"></path><path d="M111 77L76 225L195 201Z" fill="#297ea6" stroke="#297ea6"></path><path d="M392 0L291 0L306 96Z" fill="#297ea6" stroke="#297ea6"></path><path d="M900 473L900 377L835 369Z" fill="#15384f" stroke="#15384f"></path><path d="M835 369L900 309L804 321Z" fill="#297ea6" stroke="#297ea6"></path><path d="M900 473L835 369L830 528Z" fill="#081a28" stroke="#081a28"></path><path d="M805 239L808 118L694 226Z" fill="#0c2435" stroke="#0c2435"></path><path d="M696 105L690 0L607 122Z" fill="#246688" stroke="#246688"></path><path d="M900 217L808 118L805 239Z" fill="#1d4e6b" stroke="#1d4e6b"></path><path d="M900 377L900 309L835 369Z" fill="#297ea6" stroke="#297ea6"></path><path d="M900 600L900 473L830 528Z" fill="#0c2435" stroke="#0c2435"></path><path d="M821 0L690 0L696 105Z" fill="#205a7a" stroke="#205a7a"></path><path d="M0 311L0 368L76 335Z" fill="#246688" stroke="#246688"></path><path d="M76 335L0 368L118 432Z" fill="#1d4e6b" stroke="#1d4e6b"></path><path d="M291 0L213 0L306 96Z" fill="#277297" stroke="#277297"></path><path d="M181 94L111 77L195 201Z" fill="#0c2435" stroke="#0c2435"></path><path d="M0 207L0 311L76 225Z" fill="#1d4e6b" stroke="#1d4e6b"></path><path d="M76 225L0 311L76 335Z" fill="#15384f" stroke="#15384f"></path><path d="M117 0L111 77L181 94Z" fill="#081a28" stroke="#081a28"></path><path d="M900 309L900 217L805 239Z" fill="#205a7a" stroke="#205a7a"></path><path d="M0 368L0 489L118 432Z" fill="#15384f" stroke="#15384f"></path><path d="M812 600L900 600L830 528Z" fill="#246688" stroke="#246688"></path><path d="M0 81L0 207L76 225Z" fill="#081a28" stroke="#081a28"></path><path d="M0 489L0 600L120 531Z" fill="#277297" stroke="#277297"></path><path d="M900 217L900 113L808 118Z" fill="#15384f" stroke="#15384f"></path><path d="M808 118L821 0L696 105Z" fill="#0c2435" stroke="#0c2435"></path><path d="M213 0L117 0L181 94Z" fill="#19435d" stroke="#19435d"></path><path d="M111 77L0 81L76 225Z" fill="#297ea6" stroke="#297ea6"></path><path d="M900 113L821 0L808 118Z" fill="#15384f" stroke="#15384f"></path><path d="M0 0L0 81L111 77Z" fill="#0c2435" stroke="#0c2435"></path><path d="M900 113L900 0L821 0Z" fill="#112e42" stroke="#112e42"></path><path d="M117 0L0 0L111 77Z" fill="#277297" stroke="#277297"></path></g></svg>