<svg id="visual" viewBox="0 0 900 600" width="900" height="600" xmlns="http://www.w3.org/2000/svg" xmlns:xlink="http://www.w3.org/1999/xlink" version="1.1"><rect x="0" y="0" width="900" height="600" fill="#001220"></rect><path d="M0 465L16.7 464.8C33.3 464.7 66.7 464.3 100 464.7C133.3 465 166.7 466 200 471.8C233.3 477.7 266.7 488.3 300 499.2C333.3 510 366.7 521 400 519.5C433.3 518 466.7 504 500 495C533.3 486 566.7 482 600 489.8C633.3 497.7 666.7 517.3 700 517.8C733.3 518.3 766.7 499.7 800 494.8C833.3 490 866.7 499 883.3 503.5L900 508L900 601L883.3 601C866.7 601 833.3 601 800 601C766.7 601 733.3 601 700 601C666.7 601 633.3 601 600 601C566.7 601 533.3 601 500 601C466.7 601 433.3 601 400 601C366.7 601 333.3 601 300 601C266.7 601 233.3 601 200 601C166.7 601 133.3 601 100 601C66.7 601 33.3 601 16.7 601L0 601Z" fill="#fa7268"></path><path d="M0 500L16.7 503.5C33.3 507 66.7 514 100 522C133.3 530 166.7 539 200 538.8C233.3 538.7 266.7 529.3 300 523.3C333.3 517.3 366.7 514.7 400 512.7C433.3 510.7 466.7 509.3 500 516.3C533.3 523.3 566.7 538.7 600 540.2C633.3 541.7 666.7 529.3 700 526.2C733.3 523 766.7 529 800 534.5C833.3 540 866.7 545 883.3 547.5L900 550L900 601L883.3 601C866.7 601 833.3 601 800 601C766.7 601 733.3 601 700 601C666.7 601 633.3 601 600 601C566.7 601 533.3 601 500 601C466.7 601 433.3 601 400 601C366.7 601 333.3 601 300 601C266.7 601 233.3 601 200 601C166.7 601 133.3 601 100 601C66.7 601 33.3 601 16.7 601L0 601Z" fill="#e34c67"></path><path d="M0 570L16.7 566.8C33.3 563.7 66.7 557.3 100 552.5C133.3 547.7 166.7 544.3 200 541.2C233.3 538 266.7 535 300 539.2C333.3 543.3 366.7 554.7 400 556.2C433.3 557.7 466.7 549.3 500 550C533.3 550.7 566.7 560.3 600 563.8C633.3 567.3 666.7 564.7 700 559.8C733.3 555 766.7 548 800 549C833.3 550 866.7 559 883.3 563.5L900 568L900 601L883.3 601C866.7 601 833.3 601 800 601C766.7 601 733.3 601 700 601C666.7 601 633.3 601 600 601C566.7 601 533.3 601 500 601C466.7 601 433.3 601 400 601C366.7 601 333.3 601 300 601C266.7 601 233.3 601 200 601C166.7 601 133.3 601 100 601C66.7 601 33.3 601 16.7 601L0 601Z" fill="#c62368"></path></svg>